<svg width="700" height="688" viewBox="0 0 700 688" fill="none" xmlns="http://www.w3.org/2000/svg">
<path fill-rule="evenodd" clip-rule="evenodd" d="M368.851 19.2036C517.89 24.4479 610.063 142.494 654.5 271.276C696.771 393.781 697.601 562.764 582.148 637.357C468.454 710.815 323.602 643.153 210.684 568.723C98.4646 494.754 -8.22259 392.821 26.7613 271.276C67.7291 128.941 206.367 13.4862 368.851 19.2036Z" fill="white"/>
<path d="M663.48 268.177C618.522 137.883 524.054 15.1589 369.185 9.70946C201.949 3.82485 59.6923 122.518 17.632 268.648C-0.91255 333.077 18.38 391.949 55.8398 443.43C93.1548 494.711 148.985 539.432 205.456 576.655C262.236 614.081 327.689 650.258 393.7 667.683C459.846 685.144 527.483 683.986 587.303 645.337C648.055 606.086 677.703 542.248 686.887 473.542C696.061 404.911 684.997 330.533 663.48 268.177Z" stroke="white" stroke-opacity="0.15" stroke-width="19"/>
</svg>
